<svg width="596" height="508" viewBox="0 0 596 508" fill="none" xmlns="http://www.w3.org/2000/svg">
<path d="M250.507 52.5025C211.477 52.5025 172.448 52.5025 133.419 52.5025C111.116 52.5025 88.5645 51.3043 70.3398 66.2154C44.4306 87.4139 26.5751 123.563 23.5049 156.721C21.0144 183.618 14.2951 231.931 28.3571 256.931C34.96 268.669 63.4112 273.192 74.9811 275.707C108.789 283.056 143.792 280.348 178.355 280.348C231.711 280.348 285.094 278.626 334.05 254.61C349.745 246.911 358.058 244.815 362.32 226.551C368.827 198.665 364.429 166.258 364.429 137.734C364.429 125.869 364.488 79.9815 349.24 79.0845C325.672 77.6982 298.663 75.6631 276.245 67.6922C264.344 63.461 222.229 60.5037 216.33 48.7051" stroke="#38BC4D" stroke-width="3" stroke-linecap="round"/>
<path d="M117.597 132.248V158.83" stroke="#38BC4D" stroke-width="3" stroke-linecap="round"/>
<path d="M242.912 128.451C242.912 140.294 241.885 149.181 246.709 158.83" stroke="#38BC4D" stroke-width="3" stroke-linecap="round"/>
<path d="M166.963 204.399C166.963 237.552 161.804 230.607 136.584 243.218C129.135 246.942 122.03 246.171 113.799 246.171C101.028 246.171 103.14 242.308 98.6095 230.981" stroke="#38BC4D" stroke-width="3" stroke-linecap="round"/>
<path d="M163.166 219.589C180.047 241.198 188.454 242.374 214.431 242.374C227.153 242.374 235.317 229.279 235.317 215.792" stroke="#38BC4D" stroke-width="3" stroke-linecap="round"/>
<path d="M18.8636 132.248C18.8636 97.8718 11.9676 52.7924 27.3023 22.1231C34.2603 8.20706 74.4794 4.19658 83.4198 15.3721C92.4393 26.6465 109.121 53.9606 121.394 60.0974" stroke="#38BC4D" stroke-width="3" stroke-linecap="round"/>
<path d="M261.899 63.8947C270.635 50.9225 279.401 32.251 295.865 29.5069C307.879 27.5045 321.785 19.3028 331.94 12.8404C345.339 4.31433 375.797 -4.4832 389.113 8.83204C417.418 37.1375 364.29 83.1613 353.037 105.666" stroke="#38BC4D" stroke-width="3" stroke-linecap="round"/>
<path d="M64.4327 272.753C31.3913 284.455 5.56413 331.775 3.67391 367.689C2.14116 396.811 -3.15784 436.806 18.8636 458.827C48.4403 488.404 102.238 504.396 143.335 504.396C196.625 504.396 254.189 510.751 305.569 495.114C327.539 488.427 351.642 483.465 371.813 472.118C384.56 464.948 414.205 454.102 421.391 441.528C435.964 416.025 432.783 382.991 432.783 354.398C432.783 322.501 421.007 302.536 404.302 276.551C391.5 256.636 360.632 249.801 360.632 227.184" stroke="#38BC4D" stroke-width="3" stroke-linecap="round"/>
<path d="M425.188 352.499C445.429 325.782 466.96 301.28 466.96 266.846C466.96 245.092 467.977 192.266 489.744 178.661C512.082 164.7 533.452 158.83 559.997 158.83C569.495 158.83 584.962 155.386 591.431 163.472C596.118 169.33 593.754 191.94 584.68 193.007C565.035 195.318 533.222 201.317 520.124 217.69C508.342 232.417 505.221 252.458 494.386 266.002C489.758 271.786 493.542 293.771 493.542 301.234C493.542 316.212 485.432 325.386 482.361 339.208C476.858 363.968 444.971 362.3 436.581 379.081" stroke="#38BC4D" stroke-width="3" stroke-linecap="round"/>
<path d="M30.2559 348.702C27.1967 364.38 8.10229 422.603 37.8508 420.853C59.0294 419.607 69.5109 386.654 79.6225 371.486" stroke="#38BC4D" stroke-width="3" stroke-linecap="round"/>
<path d="M208.735 363.891C208.409 377.264 197.171 410.082 210.634 420.853C218.129 426.849 214.406 432.245 225.823 432.245C232.005 432.245 246.196 434.996 249.663 428.448C254.927 418.505 265.696 403.502 265.696 392.372C265.696 385.638 272.289 354.899 277.089 352.499" stroke="#38BC4D" stroke-width="3" stroke-linecap="round"/>
</svg>
